<svg xmlns="http://www.w3.org/2000/svg" viewBox="0 0 800 500" width="800" height="500">
  <!-- Main background -->
  <rect width="800" height="500" fill="#f5f5f5" rx="10" />
  
  <!-- Header -->
  <rect x="20" y="20" width="760" height="60" fill="#ffffff" rx="5" />
  <text x="40" y="55" font-family="Arial" font-size="18" font-weight="bold" fill="#333333">Trade on Numbers</text>
  <text x="40" y="80" font-family="Arial" font-size="24" font-weight="bold" fill="#333333">Terminal</text>
  
  <!-- Left panel - TON Ratio -->
  <rect x="20" y="100" width="370" height="180" fill="#ffffff" rx="5" stroke="#e0e0e0" stroke-width="1" />
  <text x="40" y="130" font-family="Arial" font-size="18" font-weight="bold" fill="#333333">TON Ratio</text>
  <circle cx="80" cy="160" r="20" fill="none" stroke="#333333" stroke-width="2" />
  <text x="120" y="170" font-family="Arial" font-size="36" font-weight="bold" fill="#333333">38%</text>
  
  <!-- Right panel - TON Wave -->
  <rect x="410" y="100" width="370" height="180" fill="#ffffff" rx="5" stroke="#e0e0e0" stroke-width="1" />
  <text x="430" y="130" font-family="Arial" font-size="18" font-weight="bold" fill="#333333">TON Wave</text>
  <path d="M430,160 Q440,150 450,160 Q460,170 470,160 Q480,150 490,160" stroke="#7c4dff" stroke-width="2" fill="none" />
  <text x="500" y="170" font-family="Arial" font-size="36" font-weight="bold" fill="#7c4dff">+43%</text>
  
  <!-- Chart area -->
  <rect x="20" y="300" width="760" height="180" fill="#ffffff" rx="5" stroke="#e0e0e0" stroke-width="1" />
  
  <!-- Chart grid lines -->
  <line x1="40" y1="330" x2="760" y2="330" stroke="#e0e0e0" stroke-width="1" />
  <line x1="40" y1="360" x2="760" y2="360" stroke="#e0e0e0" stroke-width="1" />
  <line x1="40" y1="390" x2="760" y2="390" stroke="#e0e0e0" stroke-width="1" />
  <line x1="40" y1="420" x2="760" y2="420" stroke="#e0e0e0" stroke-width="1" />
  <line x1="40" y1="450" x2="760" y2="450" stroke="#e0e0e0" stroke-width="1" />
  
  <!-- Chart vertical lines (time) -->
  <line x1="100" y1="300" x2="100" y2="480" stroke="#e0e0e0" stroke-width="1" />
  <line x1="200" y1="300" x2="200" y2="480" stroke="#e0e0e0" stroke-width="1" />
  <line x1="300" y1="300" x2="300" y2="480" stroke="#e0e0e0" stroke-width="1" />
  <line x1="400" y1="300" x2="400" y2="480" stroke="#e0e0e0" stroke-width="1" />
  <line x1="500" y1="300" x2="500" y2="480" stroke="#e0e0e0" stroke-width="1" />
  <line x1="600" y1="300" x2="600" y2="480" stroke="#e0e0e0" stroke-width="1" />
  <line x1="700" y1="300" x2="700" y2="480" stroke="#e0e0e0" stroke-width="1" />
  
  <!-- Chart time labels -->
  <text x="100" y="495" font-family="Arial" font-size="12" fill="#666666" text-anchor="middle">12:30</text>
  <text x="200" y="495" font-family="Arial" font-size="12" fill="#666666" text-anchor="middle">12:45</text>
  <text x="300" y="495" font-family="Arial" font-size="12" fill="#666666" text-anchor="middle">13:00</text>
  <text x="400" y="495" font-family="Arial" font-size="12" fill="#666666" text-anchor="middle">13:15</text>
  <text x="500" y="495" font-family="Arial" font-size="12" fill="#666666" text-anchor="middle">13:30</text>
  <text x="600" y="495" font-family="Arial" font-size="12" fill="#666666" text-anchor="middle">13:45</text>
  
  <!-- Chart value labels -->
  <text x="30" y="330" font-family="Arial" font-size="12" fill="#666666">30</text>
  <text x="30" y="360" font-family="Arial" font-size="12" fill="#666666">15</text>
  <text x="30" y="390" font-family="Arial" font-size="12" fill="#666666">0</text>
  <text x="30" y="420" font-family="Arial" font-size="12" fill="#666666">-15</text>
  <text x="30" y="450" font-family="Arial" font-size="12" fill="#666666">-30</text>
  
  <!-- Chart lines -->
  <polyline points="40,370 60,375 80,365 100,380 120,370 140,360 160,350 180,345 200,340 220,335 240,330 260,340 280,330 300,390 320,380 340,370 360,390 380,380 400,370 420,360 440,350 460,340 480,350 500,340 520,345 540,350 560,355 580,365 600,380 620,400 640,420 660,440 680,450 700,440 720,430 740,420 760,410" fill="none" stroke="#333333" stroke-width="1.5" />
  
  <!-- Purple area chart -->
  <path d="M300,390 L320,380 L340,370 L360,390 L380,380 L400,370 L420,360 L440,350 L460,340 L480,350 L500,340 L520,345 L540,350 L560,355 L580,365 L600,380 L600,390 L300,390 Z" fill="#7c4dff" fill-opacity="0.2" stroke="#7c4dff" stroke-width="1.5" />
  
  <!-- Strike price info -->
  <text x="40" y="220" font-family="Arial" font-size="14" fill="#666666">Trade on Numbers (ToN) is a technical</text>
  <text x="40" y="240" font-family="Arial" font-size="14" fill="#666666">analysis platform that stands alone in its</text>
  <text x="40" y="260" font-family="Arial" font-size="14" fill="#666666">dedication to trading numbers.</text>
  
  <text x="40" y="290" font-family="Arial" font-size="14" fill="#666666">Strike Price</text>
  <text x="40" y="310" font-family="Arial" font-size="18" font-weight="bold" fill="#333333">24900</text>
  <text x="40" y="330" font-family="Arial" font-size="12" fill="#666666">(Wave -10% | Ratio 0.63 | Trend - Neutral)</text>
</svg>